<?xml version="1.0" standalone="no"?>
<!DOCTYPE svg PUBLIC "-//W3C//DTD SVG 20010904//EN"
 "http://www.w3.org/TR/2001/REC-SVG-20010904/DTD/svg10.dtd">
<svg version="1.0" xmlns="http://www.w3.org/2000/svg"
 width="512.000000pt" height="512.000000pt" viewBox="0 0 512.000000 512.000000"
 preserveAspectRatio="xMidYMid meet">
<metadata>
Created by potrace 1.11, written by Peter Selinger 2001-2013
</metadata>
<g transform="translate(0.000000,512.000000) scale(0.100000,-0.100000)"
fill="#000000" stroke="none">
<path d="M2436 5100 c-252 -78 -375 -367 -256 -600 44 -85 154 -183 236 -210
20 -7 34 -19 35 -28 1 -22 1 -1894 0 -1905 -1 -6 -103 64 -121 83 -3 3 -30 23
-60 45 -30 22 -60 44 -67 50 -7 5 -40 31 -75 57 -35 26 -119 89 -188 141
l-125 94 0 297 0 298 59 24 c249 101 337 426 175 644 -103 139 -264 200 -432
165 -34 -7 -66 -10 -72 -7 -5 3 -7 2 -3 -3 4 -4 -9 -16 -28 -25 -246 -126
-309 -459 -126 -662 43 -48 140 -114 182 -123 l29 -6 3 -353 c3 -297 5 -355
18 -367 8 -8 197 -152 420 -319 223 -167 407 -305 409 -306 10 -8 6 -1124 -4
-1124 -7 0 -7 -3 0 -8 10 -7 15 -92 6 -92 -5 0 -131 90 -171 123 -8 7 -309
232 -668 501 l-652 490 0 136 0 136 67 29 c84 36 169 119 208 201 135 286 -66
613 -379 615 -237 2 -429 -190 -427 -427 1 -166 90 -304 245 -383 l72 -36 1
-178 c0 -124 4 -184 12 -200 7 -12 207 -166 443 -342 236 -176 435 -325 441
-330 7 -6 191 -144 410 -308 376 -282 397 -299 398 -330 0 -18 1 -137 2 -264
l2 -233 26 -26 c41 -40 94 -42 149 -5 25 17 59 42 75 57 17 14 46 38 65 53 19
14 37 28 40 31 3 3 41 35 85 70 44 36 82 67 85 70 3 3 25 21 50 40 25 19 47
37 50 40 3 4 154 127 335 274 182 147 342 277 357 289 64 53 111 91 228 186
69 55 132 106 140 114 8 7 51 42 95 77 44 36 88 72 98 81 34 31 42 79 41 246
l-1 161 71 36 c79 39 128 81 173 147 55 83 75 149 74 247 -1 111 -42 208 -125
292 -205 209 -561 146 -685 -120 -32 -69 -32 -69 -36 -162 -6 -123 36 -236
118 -316 48 -47 152 -112 179 -112 17 0 18 -12 18 -148 l0 -148 -47 -36 c-27
-20 -57 -45 -68 -55 -11 -10 -144 -117 -295 -238 -151 -121 -280 -224 -286
-230 -6 -5 -29 -23 -50 -40 -21 -16 -52 -42 -69 -56 -16 -14 -113 -92 -215
-174 -102 -82 -242 -195 -312 -252 -69 -56 -132 -104 -138 -105 -10 -2 -12
142 -12 642 0 355 1 650 1 657 1 7 22 27 49 44 26 18 49 35 52 38 4 5 580 437
687 515 23 17 46 41 52 54 7 15 11 142 11 360 l0 337 59 23 c161 62 272 243
257 421 -6 85 -19 126 -58 191 -143 238 -466 280 -661 86 -58 -57 -114 -156
-123 -219 -6 -40 -6 -135 -1 -167 25 -134 145 -272 278 -320 l36 -13 -1 -300
-1 -300 -25 -16 c-14 -8 -27 -18 -30 -22 -12 -13 -570 -429 -577 -429 -6 0 -9
2296 -4 2342 1 4 11 9 24 13 125 35 253 173 282 304 71 326 -226 607 -539 511z
m229 -225 c94 -55 131 -163 90 -261 -32 -78 -94 -123 -180 -131 -119 -11 -225
86 -225 207 0 92 40 156 123 195 62 29 132 26 192 -10z m-870 -844 c134 -60
164 -241 58 -343 -78 -75 -212 -77 -289 -6 -114 105 -78 299 66 357 40 16 122
12 165 -8z m1687 -418 c52 -16 123 -84 114 -109 -3 -9 -1 -12 4 -9 23 14 32
-84 14 -145 -24 -79 -113 -149 -190 -150 -125 -1 -224 98 -224 222 0 51 44
131 89 162 67 46 113 53 193 29z m-2522 -764 c59 -33 109 -118 105 -179 -5
-72 -18 -104 -59 -146 -24 -24 -56 -48 -71 -54 -101 -39 -213 1 -266 93 -35
62 -33 157 3 213 29 45 73 81 116 95 42 13 128 3 172 -22z m3360 -404 c0 3 17
-3 38 -14 162 -83 161 -299 -2 -383 -59 -30 -151 -22 -208 18 -107 75 -123
228 -35 322 43 46 138 77 185 61 12 -5 22 -6 22 -4z"/>
</g>
</svg>
